<svg width="100" height="78" viewBox="0 0 100 78" fill="none" xmlns="http://www.w3.org/2000/svg">
<g clip-path="url(#clip0_51_611)">
<path d="M37.5358 56.9206C37.5013 58.4864 37.9828 60.02 38.9061 61.2851C39.8293 62.5501 41.143 63.4764 42.6447 63.9211C46.7787 65.7736 51.7708 66.6511 55.7293 64.4476C59.6878 62.2441 61.5792 57.3691 62.2812 52.7476C62.8285 50.0525 62.6536 47.2607 61.7742 44.6551C61.5872 44.0788 61.2176 43.5791 60.7213 43.2316C60.243 42.9984 59.7112 42.8975 59.1808 42.9391C53.6233 42.9391 45.6283 42.4905 40.4998 44.9865C36.2683 47.112 37.1263 53.0011 37.5358 56.9206Z" fill="#FF9EAB" stroke="#333333" stroke-width="1.5" stroke-linecap="round" stroke-linejoin="round"/>
<path d="M53.7013 61.8346C53.7013 61.8346 37.8672 62.3416 34.2012 41.8081C34.2012 41.8081 19.3618 115.109 55.5343 112.847L65.5962 103.799L53.7013 61.8346Z" fill="white" stroke="#333333" stroke-width="1.5" stroke-linecap="round" stroke-linejoin="round"/>
<path d="M66.4738 35.8215C65.9397 35.823 65.4153 35.9642 64.9527 36.231C63.3927 23.4 52.3947 23.3025 52.3947 23.3025H47.6367C47.6367 23.3025 36.6583 23.4 35.0983 36.231C34.6357 35.9642 34.1113 35.823 33.5773 35.8215C33.107 35.8166 32.6421 35.9222 32.2201 36.1298C31.7981 36.3374 31.4308 36.6412 31.1477 37.0168C30.8646 37.3924 30.6737 37.8292 30.5903 38.292C30.507 38.7549 30.5335 39.2309 30.6678 39.6816C30.802 40.1324 31.0403 40.5453 31.3633 40.8871C31.6864 41.2289 32.0852 41.49 32.5277 41.6495C32.9701 41.809 33.4438 41.8623 33.9107 41.8051C34.3775 41.748 34.8243 41.582 35.2153 41.3205C35.3468 44.9554 36.8536 48.4047 39.431 50.9711C42.0083 53.5376 45.4638 55.0298 49.0992 55.146H50.9517C54.5841 55.0207 58.0345 53.5256 60.61 50.961C63.1854 48.3964 64.6951 44.9524 64.8357 41.3205C65.3215 41.6414 65.8916 41.811 66.4738 41.808C66.8872 41.8414 67.303 41.7888 67.695 41.6535C68.0871 41.5183 68.4468 41.3032 68.7517 41.022C69.0565 40.7408 69.2999 40.3995 69.4663 40.0196C69.6327 39.6397 69.7186 39.2295 69.7186 38.8148C69.7186 38.4 69.6327 37.9898 69.4663 37.6099C69.2999 37.23 69.0565 36.8887 68.7517 36.6075C68.4468 36.3263 68.0871 36.1113 67.695 35.976C67.303 35.8407 66.8872 35.7881 66.4738 35.8215Z" fill="#FDE8DE" stroke="#333333" stroke-width="1.5" stroke-linecap="round" stroke-linejoin="round"/>
<path d="M50.0938 42.7051C50.7615 42.7051 51.3028 42.1638 51.3028 41.4961C51.3028 40.8284 50.7615 40.2871 50.0938 40.2871C49.4261 40.2871 48.8848 40.8284 48.8848 41.4961C48.8848 42.1638 49.4261 42.7051 50.0938 42.7051Z" fill="#FF787F"/>
<path d="M43.7368 46.2539C45.0399 46.2539 46.0963 45.1975 46.0963 43.8944C46.0963 42.5913 45.0399 41.5349 43.7368 41.5349C42.4336 41.5349 41.3773 42.5913 41.3773 43.8944C41.3773 45.1975 42.4336 46.2539 43.7368 46.2539Z" fill="#FFA89C"/>
<path d="M56.4507 46.2539C57.7539 46.2539 58.8102 45.1975 58.8102 43.8944C58.8102 42.5913 57.7539 41.5349 56.4507 41.5349C55.1476 41.5349 54.0912 42.5913 54.0912 43.8944C54.0912 45.1975 55.1476 46.2539 56.4507 46.2539Z" fill="#FFA89C"/>
<path d="M44.8482 41.9056C45.5483 41.9056 46.1157 41.3381 46.1157 40.6381C46.1157 39.9381 45.5483 39.3706 44.8482 39.3706C44.1482 39.3706 43.5807 39.9381 43.5807 40.6381C43.5807 41.3381 44.1482 41.9056 44.8482 41.9056Z" fill="#333333"/>
<path d="M55.3783 41.9056C56.0783 41.9056 56.6458 41.3381 56.6458 40.6381C56.6458 39.9381 56.0783 39.3706 55.3783 39.3706C54.6783 39.3706 54.1108 39.9381 54.1108 40.6381C54.1108 41.3381 54.6783 41.9056 55.3783 41.9056Z" fill="#333333"/>
<path d="M46.5253 43.9919C46.6 44.1979 46.7199 44.3845 46.8763 44.5379C47.3197 44.9184 47.8339 45.2073 48.3895 45.388C48.9451 45.5688 49.5309 45.6377 50.1133 45.591C50.7008 45.6406 51.2925 45.6011 51.8683 45.4739C52.1578 45.412 52.4294 45.2851 52.6625 45.1026C52.8956 44.9202 53.0842 44.6871 53.2138 44.4209" stroke="#333333" stroke-width="1.5" stroke-linecap="round" stroke-linejoin="round"/>
<path d="M37.6528 30.4395L36.0928 27.729" stroke="#333333" stroke-width="1.5" stroke-linecap="round" stroke-linejoin="round"/>
<path d="M43.4052 25.7011C43.2539 24.5924 42.9927 23.5015 42.6253 22.4446" stroke="#333333" stroke-width="1.5" stroke-linecap="round" stroke-linejoin="round"/>
<path d="M50.7178 24.1801C50.721 22.9414 51.0291 21.7226 51.6148 20.6311" stroke="#333333" stroke-width="1.5" stroke-linecap="round" stroke-linejoin="round"/>
<path d="M57.7183 27.2025C58.2484 26.2775 58.9047 25.4309 59.6683 24.687" stroke="#333333" stroke-width="1.5" stroke-linecap="round" stroke-linejoin="round"/>
<path d="M62.4958 30.9659C63.331 30.8503 64.1157 30.4984 64.7577 29.9519" stroke="#333333" stroke-width="1.5" stroke-linecap="round" stroke-linejoin="round"/>
<path d="M34.8837 66.7681C34.8837 66.7681 59.7462 67.7431 66.4737 41.8081C66.4737 41.8081 81.3132 115.109 45.1407 112.847L35.0202 103.799" fill="white"/>
<path d="M34.8837 66.7681C34.8837 66.7681 59.7462 67.7431 66.4737 41.8081C66.4737 41.8081 81.3132 115.109 45.1407 112.847L35.0202 103.799" stroke="#333333" stroke-width="1.5" stroke-linecap="round" stroke-linejoin="round"/>
</g>
<defs>
<clipPath id="clip0_51_611">
<rect width="99.5745" height="78" fill="white" transform="translate(0.212769)"/>
</clipPath>
</defs>
</svg>
