<svg width="100" height="78" viewBox="0 0 100 78" fill="none" xmlns="http://www.w3.org/2000/svg">
<g clip-path="url(#clip0_3_558)">
<path d="M41.0715 57.1724V42.1533H59.5923V57.1724C59.5923 57.1724 52.4727 60.558 41.0715 57.1724Z" fill="#FDE8DE" stroke="#333333" stroke-width="1.5" stroke-linecap="round" stroke-linejoin="round"/>
<path d="M69.8651 29.308C69.2335 29.3077 68.6137 29.4799 68.0727 29.8059C66.214 14.6208 53.2196 14.488 53.2196 14.488H47.577C47.577 14.488 34.566 14.6208 32.7238 29.8059C32.1829 29.4799 31.5631 29.3077 30.9315 29.308C29.9896 29.308 29.0863 29.6822 28.4202 30.3482C27.7542 31.0143 27.38 31.9176 27.38 32.8595C27.38 33.8015 27.7542 34.7048 28.4202 35.3708C29.0863 36.0369 29.9896 36.411 30.9315 36.411C31.6164 36.4117 32.2863 36.2096 32.8566 35.8301C33.0059 41.705 37.0885 51.0485 49.2864 52.1936H51.4936C63.7081 51.0485 67.9068 41.5225 67.94 35.8301C68.5103 36.2096 69.1801 36.4117 69.8651 36.411C70.807 36.411 71.7104 36.0369 72.3764 35.3708C73.0424 34.7048 73.4166 33.8015 73.4166 32.8595C73.4166 31.9176 73.0424 31.0143 72.3764 30.3482C71.7104 29.6822 70.807 29.308 69.8651 29.308Z" fill="#FDE8DE" stroke="#333333" stroke-width="1.5" stroke-linecap="round" stroke-linejoin="round"/>
<path d="M50.4647 37.4566C51.3812 37.4566 52.1243 36.7136 52.1243 35.797C52.1243 34.8805 51.3812 34.1375 50.4647 34.1375C49.5481 34.1375 48.8051 34.8805 48.8051 35.797C48.8051 36.7136 49.5481 37.4566 50.4647 37.4566Z" fill="#FF787F"/>
<path d="M41.7851 42.2861C43.5724 42.2861 45.0213 40.8372 45.0213 39.0499C45.0213 37.2626 43.5724 35.8137 41.7851 35.8137C39.9978 35.8137 38.549 37.2626 38.549 39.0499C38.549 40.8372 39.9978 42.2861 41.7851 42.2861Z" fill="#FFA89C"/>
<path d="M59.1277 42.2861C60.9149 42.2861 62.3638 40.8372 62.3638 39.0499C62.3638 37.2626 60.9149 35.8137 59.1277 35.8137C57.3404 35.8137 55.8915 37.2626 55.8915 39.0499C55.8915 40.8372 57.3404 42.2861 59.1277 42.2861Z" fill="#FFA89C"/>
<path d="M50.6638 43.5971H50.8796C54.1987 43.5971 55.5927 39.0996 55.5927 39.0996H45.2038C45.2038 39.0996 46.5314 43.5971 49.917 43.5971H50.6638Z" fill="white" stroke="#333333" stroke-width="1.5" stroke-linecap="round" stroke-linejoin="round"/>
<path d="M43.3119 36.3613C44.2651 36.3613 45.0379 35.5886 45.0379 34.6354C45.0379 33.6822 44.2651 32.9094 43.3119 32.9094C42.3587 32.9094 41.5859 33.6822 41.5859 34.6354C41.5859 35.5886 42.3587 36.3613 43.3119 36.3613Z" fill="#333333"/>
<path d="M57.6672 36.3613C58.6205 36.3613 59.3932 35.5886 59.3932 34.6354C59.3932 33.6822 58.6205 32.9094 57.6672 32.9094C56.714 32.9094 55.9413 33.6822 55.9413 34.6354C55.9413 35.5886 56.714 36.3613 57.6672 36.3613Z" fill="#333333"/>
<path d="M29.6868 26.9681C29.9516 22.4231 31.8493 18.1267 35.0306 14.8698C38.6319 11.1856 44.8055 10.1898 49.8009 8.7294C52.0442 8.27335 54.2352 7.58936 56.3396 6.68811C57.4349 6.12385 58.4638 5.02857 59.5425 4.54729C62.3804 3.36899 61.6834 6.32304 62.2808 7.86644C63.011 7.56772 62.9778 6.77109 63.8242 6.63832C64.737 7.16938 64.9693 9.27704 65.3676 10.837C66.3549 13.7192 67.5131 16.54 68.8362 19.2843C69.6328 21.2758 71.591 27.0677 69.3672 29.0758H68.0562C66.4677 28.6671 64.9962 27.8944 63.7579 26.8188C60.4387 23.9145 58.663 21.226 58.2979 17.1268C56.8042 20.6617 50.1161 22.703 46.2327 23.4498C42.9136 24.0805 33.6034 26.0056 33.0723 30.0052C32.2051 29.4384 31.1583 29.2136 30.1349 29.3745L29.6868 26.9681Z" fill="#997243" stroke="#333333" stroke-width="1.5" stroke-linecap="round" stroke-linejoin="round"/>
<path d="M33.3379 23.7651C34.5274 22.1354 36.0347 20.7635 37.769 19.7324C39.5728 18.8809 41.49 18.294 43.4613 17.9898C46.1987 17.4144 48.801 16.3217 51.1285 14.7703" stroke="#333333" stroke-width="1.5" stroke-linecap="round" stroke-linejoin="round"/>
<path d="M55.0451 12.6459C56.4863 12.0037 57.8321 11.166 59.0446 10.1565" stroke="#333333" stroke-width="1.5" stroke-linecap="round" stroke-linejoin="round"/>
<path d="M14.4187 68.0591C14.4187 68.0591 19.9617 58.1846 40.5238 55.4463C40.5238 55.4463 47.8757 63.4454 60.9532 56.5416C60.9532 56.5416 68.3051 56.2927 79.723 62.6323C83.1937 69.891 85.0346 77.821 85.1166 85.8663L81.0174 117.166C81.0174 117.166 48.0251 122.277 20.1276 117.166L14.4187 68.0591Z" fill="#AFBAE0" stroke="#333333" stroke-width="1.5" stroke-linecap="round" stroke-linejoin="round"/>
<path d="M40.0923 55.7783L50.9128 83.6591L60.4221 56.4421C60.4221 56.4421 47.9421 60.9728 40.0923 55.7783Z" fill="white" stroke="#333333" stroke-width="1.5" stroke-linecap="round" stroke-linejoin="round"/>
<path d="M59.7915 55.2639L52.0247 58.9482L58.9783 67.9431L61.6336 56.492L59.7915 55.2639Z" fill="white" stroke="#333333" stroke-width="1.5" stroke-linecap="round" stroke-linejoin="round"/>
<path d="M41.8515 55.2639L49.6183 58.9482L42.6647 67.9431L40.0093 56.492L41.8515 55.2639Z" fill="white" stroke="#333333" stroke-width="1.5" stroke-linecap="round" stroke-linejoin="round"/>
<path d="M77.2171 61.2549C77.2171 61.2549 87.3736 65.8187 88.2034 74.3323C88.2034 74.3323 96.717 112.917 80.3205 113.332C79.2016 113.577 78.0421 113.569 76.9269 113.308C75.8116 113.047 74.7688 112.54 73.8747 111.824C72.9806 111.108 72.258 110.202 71.7595 109.17C71.261 108.139 70.9993 107.01 70.9937 105.864" fill="#AFBAE0"/>
<path d="M77.2171 61.2549C77.2171 61.2549 87.3736 65.8187 88.2034 74.3323C88.2034 74.3323 96.717 112.917 80.3205 113.332C79.2016 113.577 78.0421 113.569 76.9269 113.308C75.8116 113.047 74.7688 112.54 73.8747 111.824C72.9806 111.108 72.258 110.202 71.7595 109.17C71.261 108.139 70.9993 107.01 70.9937 105.864" stroke="#333333" stroke-width="1.5" stroke-linecap="round" stroke-linejoin="round"/>
<path d="M21.0073 62.0847C21.0073 62.0847 10.8507 66.6486 10.0209 75.1622C10.0209 75.1622 1.50726 113.747 17.9039 114.162C19.0227 114.407 20.1822 114.399 21.2975 114.138C22.4127 113.877 23.4555 113.37 24.3495 112.654C25.2436 111.938 25.9663 111.031 26.4648 110C26.9633 108.969 27.225 107.839 27.2307 106.694" fill="#AFBAE0"/>
<path d="M21.0073 62.0847C21.0073 62.0847 10.8507 66.6486 10.0209 75.1622C10.0209 75.1622 1.50726 113.747 17.9039 114.162C19.0227 114.407 20.1822 114.399 21.2975 114.138C22.4127 113.877 23.4555 113.37 24.3495 112.654C25.2436 111.938 25.9663 111.031 26.4648 110C26.9633 108.969 27.225 107.839 27.2307 106.694" stroke="#333333" stroke-width="1.5" stroke-linecap="round" stroke-linejoin="round"/>
</g>
<defs>
<clipPath id="clip0_3_558">
<rect width="99.5745" height="78" fill="white" transform="translate(0.212769)"/>
</clipPath>
</defs>
</svg>
