<svg width="100" height="78" viewBox="0 0 100 78" fill="none" xmlns="http://www.w3.org/2000/svg">
<g clip-path="url(#clip0_3_272)">
<path d="M65.6784 67.276L57.2961 63.8362L49.493 66.063L45.3652 63.8362L36.9829 67.276C34.5515 68.8553 32.514 70.9702 31.0265 73.4588C29.539 75.9474 28.641 78.7435 28.4014 81.6328H74.2418C74.0042 78.7451 73.109 75.95 71.6247 73.4616C70.1404 70.9731 68.1064 68.8573 65.6784 67.276Z" fill="#FC9B8B" stroke="#333333" stroke-width="1.5" stroke-linecap="round" stroke-linejoin="round"/>
<path d="M44.9669 65.9182V51.7605H57.64V65.9182C57.64 65.9182 52.6432 70.9874 44.9669 65.9182Z" fill="#FDE8DE" stroke="#333333" stroke-width="1.5" stroke-linecap="round" stroke-linejoin="round"/>
<path d="M70.2407 42.5093C69.6048 42.5104 68.9804 42.679 68.4303 42.9981C66.6198 28.3516 54.0373 28.3154 54.0373 28.3154H48.6059C48.6059 28.3154 36.0596 28.5146 34.3577 43.1792C33.8131 42.8472 33.185 42.6776 32.5473 42.6904C31.6805 42.7534 30.8695 43.1422 30.2777 43.7787C29.6858 44.4151 29.3568 45.252 29.3568 46.1212C29.3568 46.9903 29.6858 47.8272 30.2777 48.4637C30.8695 49.1001 31.6805 49.4889 32.5473 49.5519C33.1927 49.5298 33.8194 49.3293 34.3577 48.9726C34.5388 54.6393 38.5036 63.6372 50.2896 64.6692H52.4078C64.1757 63.4924 68.1768 54.2772 68.1768 48.7916C68.7182 49.1372 69.3451 49.3253 69.9873 49.3347C70.4366 49.3347 70.8816 49.2462 71.2967 49.0742C71.7119 48.9023 72.0891 48.6502 72.4068 48.3325C72.7245 48.0148 72.9766 47.6375 73.1485 47.2224C73.3205 46.8072 73.409 46.3623 73.409 45.913C73.409 45.4636 73.3205 45.0187 73.1485 44.6035C72.9766 44.1884 72.7245 43.8112 72.4068 43.4934C72.0891 43.1757 71.7119 42.9237 71.2967 42.7517C70.8816 42.5797 70.4366 42.4912 69.9873 42.4912L70.2407 42.5093Z" fill="#FDE8DE" stroke="#333333" stroke-width="1.5" stroke-linecap="round" stroke-linejoin="round"/>
<path d="M51.5751 50.4934C52.345 50.4934 52.9691 49.8693 52.9691 49.0994C52.9691 48.3295 52.345 47.7053 51.5751 47.7053C50.8052 47.7053 50.181 48.3295 50.181 49.0994C50.181 49.8693 50.8052 50.4934 51.5751 50.4934Z" fill="#FF787F"/>
<path d="M44.3333 54.5668C45.8231 54.5668 47.0309 53.359 47.0309 51.8692C47.0309 50.3794 45.8231 49.1716 44.3333 49.1716C42.8435 49.1716 41.6357 50.3794 41.6357 51.8692C41.6357 53.359 42.8435 54.5668 44.3333 54.5668Z" fill="#FFA89C"/>
<path d="M58.835 54.4762C60.3248 54.4762 61.5326 53.2684 61.5326 51.7786C61.5326 50.2888 60.3248 49.0811 58.835 49.0811C57.3452 49.0811 56.1375 50.2888 56.1375 51.7786C56.1375 53.2684 57.3452 54.4762 58.835 54.4762Z" fill="#FFA89C"/>
<path d="M45.5825 49.6062C46.3824 49.6062 47.0309 48.9577 47.0309 48.1578C47.0309 47.3579 46.3824 46.7095 45.5825 46.7095C44.7826 46.7095 44.1342 47.3579 44.1342 48.1578C44.1342 48.9577 44.7826 49.6062 45.5825 49.6062Z" fill="#333333"/>
<path d="M57.5858 49.5337C58.3857 49.5337 59.0342 48.8852 59.0342 48.0853C59.0342 47.2854 58.3857 46.637 57.5858 46.637C56.7859 46.637 56.1375 47.2854 56.1375 48.0853C56.1375 48.8852 56.7859 49.5337 57.5858 49.5337Z" fill="#333333"/>
<path d="M47.5197 51.9417C47.6136 52.1695 47.7486 52.3782 47.918 52.5572C48.4285 52.9883 49.0192 53.3142 49.6562 53.5161C50.2931 53.7181 50.9637 53.7921 51.6293 53.734C52.3019 53.7828 52.9779 53.7401 53.639 53.6073C53.9695 53.5314 54.2783 53.381 54.5418 53.1677C54.8054 52.9543 55.0167 52.6836 55.1597 52.3762" stroke="#333333" stroke-width="1.5" stroke-linecap="round" stroke-linejoin="round"/>
<path d="M37.8519 32.0269C35.8966 35.3762 35.1 39.8661 31.6058 41.586C32.5209 42.4411 33.6141 43.0827 34.8068 43.4646C35.9995 43.8465 37.2621 43.9593 38.5036 43.7948C40.9858 43.4548 43.3408 42.4891 45.3471 40.9886C44.7497 41.1696 45.5825 41.9662 46.2161 41.9119C48.3865 41.694 50.4873 41.0241 52.3831 39.9452C54.2789 38.8663 55.9278 37.4024 57.2236 35.6478C57.3275 37.116 57.7527 38.5435 58.4691 39.8293C59.1855 41.1151 60.1757 42.2278 61.3696 43.0887C62.5902 43.9168 64.0313 44.3596 65.5064 44.3596C66.9815 44.3596 68.4226 43.9168 69.6433 43.0887C69.214 40.3134 68.6093 37.5681 67.8329 34.8693C63.5783 23.4092 44.0617 21.2909 37.8519 32.0269Z" fill="#E8AE72" stroke="#333333" stroke-width="1.5" stroke-linecap="round" stroke-linejoin="round"/>
<path d="M40.4408 37.2047C43.1392 36.8402 45.5918 35.4452 47.2843 33.3123" stroke="#333333" stroke-width="1.5" stroke-linecap="round" stroke-linejoin="round"/>
<path d="M52.7157 34.0546C53.8825 33.3701 54.8839 32.4367 55.6486 31.3208" stroke="#333333" stroke-width="1.5" stroke-linecap="round" stroke-linejoin="round"/>
<path d="M57.7849 12.1119C59.5061 11.0031 61.4753 10.3385 63.5164 10.1773C65.5574 10.0162 67.6066 10.3636 69.4804 11.1886C69.6004 11.2228 69.7036 11.3002 69.7701 11.4058C69.8099 11.4844 69.8306 11.5712 69.8306 11.6593C69.8306 11.7473 69.8099 11.8341 69.7701 11.9127L66.6199 20.6934C66.4773 21.1758 66.23 21.6209 65.8957 21.9969C63.2887 24.4591 54.7796 29.6551 52.0096 26.2696C49.2397 22.884 54.6347 14.0853 57.7849 12.1119Z" fill="#E8AE72" stroke="#333333" stroke-width="1.5" stroke-linecap="round" stroke-linejoin="round"/>
<path d="M56.5719 22.2865C57.2163 20.4205 58.4247 18.8009 60.0299 17.6518C61.6277 16.5236 63.3388 15.5649 65.1353 14.7913" stroke="#333333" stroke-width="1.5" stroke-linecap="round" stroke-linejoin="round"/>
</g>
<defs>
<clipPath id="clip0_3_272">
<rect width="99.5745" height="78" fill="white" transform="translate(0.212769)"/>
</clipPath>
</defs>
</svg>
