<svg width="100" height="78" viewBox="0 0 100 78" fill="none" xmlns="http://www.w3.org/2000/svg">
<g clip-path="url(#clip0_3_254)">
<path d="M71.0268 36.0294C70.5787 32.5941 69.7158 22.4209 61.4843 15.7992C59.8006 14.531 57.8655 13.6371 55.8085 13.1771C47.3613 11.2188 32.5745 12.5962 27.8447 33.6728L27.6953 34.4528C27.5792 37.8715 24.4924 43.2319 22.949 46.1694C20.0115 51.7622 15.9124 56.326 11.9792 61.1886C8.22217 65.6947 5.7307 71.1187 4.76003 76.9047C4.47659 78.0898 4.44536 79.3212 4.66836 80.5191C4.89136 81.717 5.36361 82.8547 6.05449 83.8584C7.94741 86.2659 10.4277 88.1461 13.257 89.3183C21.1162 92.0819 29.5969 92.5653 37.7192 90.7124C45.0711 89.0528 54.5141 85.352 59.2936 79.0954C60.5307 77.5536 61.5524 75.8507 62.3307 74.0337C62.8814 72.0138 63.3136 69.9635 63.6251 67.8933C64.5711 64.3916 67.7741 62.0017 69.3341 58.7324C72.5039 52.0941 71.3919 44.6094 71.3919 37.4566L71.0268 36.0294Z" fill="#E8AE72" stroke="#333333" stroke-width="1.5" stroke-linecap="round" stroke-linejoin="round"/>
<path d="M46.017 58.3672L33.2217 61.454C30.5903 61.5783 28.0553 62.4826 25.9393 64.0518C23.8233 65.6211 22.222 67.7843 21.3391 70.2664L6.61872 100.321L-3.80341 121.746C-3.80341 121.746 6.28681 128.385 7.81361 128.733L21.4553 104.985L29.3549 87.0281L28.0936 111.507H72.3545L71.1098 87.0281L78.9928 104.985L92.5349 128.733C94.0949 128.351 104.152 121.746 104.152 121.746L93.7132 100.321L80.4366 69.1212C80.4366 69.1212 75.0762 62.2174 68.1723 61.0723L54.3647 58.3672" fill="#E58CD8"/>
<path d="M46.017 58.3672L33.2217 61.454C30.5903 61.5783 28.0553 62.4826 25.9393 64.0518C23.8233 65.6211 22.222 67.7843 21.3391 70.2664L6.61872 100.321L-3.80341 121.746C-3.80341 121.746 6.28681 128.385 7.81361 128.733L21.4553 104.985L29.3549 87.0281L28.0936 111.507H72.3545L71.1098 87.0281L78.9928 104.985L92.5349 128.733C94.0949 128.351 104.152 121.746 104.152 121.746L93.7132 100.321L80.4366 69.1212C80.4366 69.1212 75.0762 62.2174 68.1723 61.0723L54.3647 58.3672" stroke="#333333" stroke-width="1.5" stroke-linecap="round" stroke-linejoin="round"/>
<path d="M69.2179 60.9063L32.5911 61.9519L41.3204 56.4255V45.1072H59.0447V56.691L69.2179 60.9063Z" fill="#FDE8DE" stroke="#333333" stroke-width="1.5" stroke-linecap="round" stroke-linejoin="round"/>
<path d="M67.7076 33.0421C67.117 33.0682 66.5441 33.2515 66.0481 33.5732C63.7413 19.0851 51.3276 19.4336 51.3276 19.4336H49.5685H47.6932H45.934C45.934 19.4336 33.4706 19.9647 32.2093 34.5855C31.765 34.3994 31.2855 34.3123 30.8042 34.3301C30.3228 34.3479 29.851 34.4704 29.4217 34.6888C28.9924 34.9073 28.6158 35.2166 28.318 35.5953C28.0202 35.9739 27.8084 36.4129 27.6974 36.8816C27.5863 37.3503 27.5786 37.8376 27.6747 38.3096C27.7709 38.7817 27.9687 39.2271 28.2543 39.615C28.5399 40.0029 28.9066 40.324 29.3288 40.5559C29.7509 40.7879 30.2186 40.9252 30.6991 40.9583C31.355 40.9385 31.9902 40.7249 32.5247 40.3442C32.8566 45.9702 37.0719 54.7825 48.8051 55.4796H48.9213H50.7966H50.9128C62.5298 53.9859 66.2804 44.7255 66.1145 39.2655C66.6791 39.6074 67.3299 39.7801 67.9898 39.7634C68.8921 39.7326 69.7452 39.3446 70.3614 38.6848C70.9777 38.025 71.3066 37.1474 71.2757 36.2451C71.2449 35.3428 70.8569 34.4897 70.1971 33.8734C69.5373 33.2572 68.6597 32.9283 67.7574 32.9591L67.7076 33.0421Z" fill="#FDE8DE" stroke="#333333" stroke-width="1.5" stroke-linecap="round" stroke-linejoin="round"/>
<path d="M49.3362 41.4894C50.2161 41.4894 50.9294 40.7761 50.9294 39.8962C50.9294 39.0163 50.2161 38.303 49.3362 38.303C48.4563 38.303 47.743 39.0163 47.743 39.8962C47.743 40.7761 48.4563 41.4894 49.3362 41.4894Z" fill="#FF787F"/>
<path d="M41.1379 46.385C42.8427 46.385 44.2247 45.003 44.2247 43.2982C44.2247 41.5934 42.8427 40.2114 41.1379 40.2114C39.4331 40.2114 38.0511 41.5934 38.0511 43.2982C38.0511 45.003 39.4331 46.385 41.1379 46.385Z" fill="#FFA89C"/>
<path d="M57.7502 45.8208C59.455 45.8208 60.837 44.4388 60.837 42.734C60.837 41.0292 59.455 39.6472 57.7502 39.6472C56.0454 39.6472 54.6634 41.0292 54.6634 42.734C54.6634 44.4388 56.0454 45.8208 57.7502 45.8208Z" fill="#FFA89C"/>
<path d="M42.4489 40.6761C43.3655 40.6761 44.1085 39.9331 44.1085 39.0165C44.1085 38.1 43.3655 37.3569 42.4489 37.3569C41.5324 37.3569 40.7894 38.1 40.7894 39.0165C40.7894 39.9331 41.5324 40.6761 42.4489 40.6761Z" fill="#333333"/>
<path d="M56.2068 40.2115C57.1234 40.2115 57.8664 39.4685 57.8664 38.5519C57.8664 37.6354 57.1234 36.8923 56.2068 36.8923C55.2903 36.8923 54.5472 37.6354 54.5472 38.5519C54.5472 39.4685 55.2903 40.2115 56.2068 40.2115Z" fill="#333333"/>
<path d="M32.6077 33.9383C34.456 33.8897 36.2683 33.4152 37.9032 32.5516C39.5382 31.6881 40.9518 30.4588 42.034 28.9596C44.3574 25.9558 46.5979 22.4209 49.9668 22.4541C52.3732 22.4541 54.2651 25.3583 56.4557 26.5864C58.2315 27.5822 60.1068 27.6983 61.7996 28.7771C63.3516 29.7345 64.5691 31.1491 65.2847 32.8264L68.0894 31.6315L66.5128 24.9932L56.6715 17.8903L48.5064 16.1145L40.5404 19.6494L34.3004 24.4124L30.0021 32.7102" fill="#E8AE72"/>
<path d="M31.0643 33.5234C34.1843 35.0336 39.3621 32.3949 42.034 28.9596C44.3575 25.9558 46.5979 22.4209 49.9668 22.4541C52.3732 22.4541 54.2651 25.3583 56.4558 26.5864C58.2315 27.5822 60.1068 27.6983 61.7996 28.7771C63.5011 29.8235 64.8708 31.3312 65.7494 33.1251" stroke="#333333" stroke-width="1.5" stroke-linecap="round" stroke-linejoin="round"/>
<path d="M44.8885 18.4711C41.1876 17.4754 37.52 23.0018 35.7774 25.6073C34.5825 27.2669 31.4957 30.3371 28.8902 30.2209" stroke="#333333" stroke-width="1.5" stroke-linecap="round" stroke-linejoin="round"/>
<path d="M44.9549 43.7131C46.5149 44.5542 48.2847 44.9264 50.0512 44.7851C51.8178 44.6438 53.5059 43.9949 54.9123 42.9165" stroke="#333333" stroke-width="1.5" stroke-linecap="round" stroke-linejoin="round"/>
<path d="M49.303 62.2341C49.6515 78.8299 49.7511 94.5958 49.1702 111.192" stroke="#333333" stroke-width="1.5" stroke-linecap="round" stroke-linejoin="round"/>
<path d="M56.2234 72.6063C57.14 72.6063 57.883 71.8632 57.883 70.9467C57.883 70.0301 57.14 69.2871 56.2234 69.2871C55.3069 69.2871 54.5638 70.0301 54.5638 70.9467C54.5638 71.8632 55.3069 72.6063 56.2234 72.6063Z" fill="white" stroke="#333333" stroke-width="1.5" stroke-linecap="round" stroke-linejoin="round"/>
</g>
<defs>
<clipPath id="clip0_3_254">
<rect width="99.5745" height="78" fill="white" transform="translate(0.212769)"/>
</clipPath>
</defs>
</svg>
