<svg width="100" height="78" viewBox="0 0 100 78" fill="none" xmlns="http://www.w3.org/2000/svg">
<g clip-path="url(#clip0_3_288)">
<path d="M94.8915 100.354L87.3404 73.8012C82.7102 59.6451 72.5204 57.6868 72.5204 57.6868L58.9119 54.2183L49.0706 55.2638L39.5945 54.2183L26.5004 57.8195C22.8075 58.8179 19.4879 60.8761 16.9515 63.7398C14.4151 66.6036 12.7731 70.1475 12.2281 73.934L4.94256 100.487C4.94256 100.487 1.15873 118.211 15.0992 123.97H23.5464L26.7494 117.332H72.1885L75.5076 123.97H84.2702C98.8247 118.211 94.8915 100.354 94.8915 100.354Z" fill="#A9D9F1" stroke="#333333" stroke-width="1.5" stroke-linecap="round" stroke-linejoin="round"/>
<path d="M39.329 57.0893V44.543H59.0945V57.1391C52.6773 59.2808 45.7354 59.2633 39.329 57.0893Z" fill="#FDE8DE" stroke="#333333" stroke-width="1.5" stroke-linecap="round" stroke-linejoin="round"/>
<path d="M70.0809 26.4537C69.4033 26.4559 68.7386 26.6393 68.1558 26.9847C66.1975 10.7541 52.2902 10.6213 52.2902 10.6213H46.2826C46.2826 10.6213 32.3753 10.7541 30.4004 26.9847C29.8234 26.6399 29.1642 26.4565 28.4919 26.4537C27.8977 26.4477 27.3103 26.5811 26.7769 26.8433C26.2436 27.1055 25.7792 27.4891 25.421 27.9633C25.0628 28.4375 24.8208 28.9891 24.7144 29.5738C24.6081 30.1585 24.6403 30.76 24.8086 31.33C24.9769 31.9 25.2765 32.4226 25.6834 32.8558C26.0902 33.2889 26.593 33.6207 27.1513 33.8243C27.7097 34.0279 28.308 34.0978 28.8982 34.0282C29.4884 33.9587 30.0541 33.7517 30.5498 33.4239C30.7158 39.6971 35.0638 49.6877 48.1081 50.9158H50.4647C63.5089 49.6877 67.9898 39.5145 68.023 33.4239C68.5173 33.7405 69.0785 33.9377 69.6622 33.9999C70.2459 34.0622 70.8361 33.9878 71.3861 33.7827C71.9361 33.5775 72.4308 33.2472 72.8311 32.8178C73.2314 32.3885 73.5264 31.8719 73.6926 31.3089C73.8588 30.7459 73.8917 30.1519 73.7888 29.574C73.6859 28.9961 73.4499 28.4501 73.0996 27.9791C72.7492 27.5081 72.294 27.1251 71.7701 26.8603C71.2462 26.5956 70.6679 26.4564 70.0809 26.4537Z" fill="#FDE8DE" stroke="#333333" stroke-width="1.5" stroke-linecap="round" stroke-linejoin="round"/>
<path d="M49.3694 35.1665C50.3501 35.1665 51.1451 34.3715 51.1451 33.3907C51.1451 32.41 50.3501 31.615 49.3694 31.615C48.3887 31.615 47.5936 32.41 47.5936 33.3907C47.5936 34.3715 48.3887 35.1665 49.3694 35.1665Z" fill="#FF787F"/>
<path d="M41.7187 33.988C42.7361 33.988 43.5608 33.1632 43.5608 32.1458C43.5608 31.1285 42.7361 30.3037 41.7187 30.3037C40.7013 30.3037 39.8766 31.1285 39.8766 32.1458C39.8766 33.1632 40.7013 33.988 41.7187 33.988Z" fill="#333333"/>
<path d="M57.0532 33.988C58.0706 33.988 58.8953 33.1632 58.8953 32.1458C58.8953 31.1285 58.0706 30.3037 57.0532 30.3037C56.0358 30.3037 55.2111 31.1285 55.2111 32.1458C55.2111 33.1632 56.0358 33.988 57.0532 33.988Z" fill="#333333"/>
<path d="M49.8341 51.5464C52.1095 51.7914 54.4111 51.5539 56.5885 50.8494C59.6919 49.7541 69.3673 44.8915 67.409 32.8098C65.2017 33.0753 65.4839 37.4732 63.3596 38.1702C61.1544 38.4003 58.9384 38.5111 56.7213 38.5022C55.2916 38.5103 53.8624 38.4439 52.4396 38.303C51.263 38.3402 50.1175 38.6896 49.1205 39.3153H48.8383C47.8413 38.6896 46.6958 38.3402 45.5192 38.303C44.0964 38.4439 42.6672 38.5103 41.2375 38.5022C39.0867 38.5087 36.9371 38.3979 34.7983 38.1702C32.6907 37.4732 32.8234 33.0753 30.6162 32.8098C27.7949 43.597 38.3332 49.7541 41.4366 50.8494C43.6141 51.5539 45.9156 51.7914 48.1911 51.5464H49.8341Z" fill="white" stroke="#333333" stroke-width="1.5" stroke-linecap="round" stroke-linejoin="round"/>
<path d="M42.1171 41.7881C44.1233 43.4397 46.6381 44.3483 49.2366 44.3604C51.8333 44.37 54.3517 43.4719 56.3562 41.8213" stroke="#333333" stroke-width="1.5" stroke-linecap="round" stroke-linejoin="round"/>
<path d="M41.3868 36.6766C44.0081 36.6766 46.1331 34.5516 46.1331 31.9302C46.1331 29.3089 44.0081 27.1838 41.3868 27.1838C38.7654 27.1838 36.6404 29.3089 36.6404 31.9302C36.6404 34.5516 38.7654 36.6766 41.3868 36.6766Z" stroke="#1B85B9" stroke-linecap="round" stroke-linejoin="round"/>
<path d="M57.0697 36.6766C59.6911 36.6766 61.8161 34.5516 61.8161 31.9302C61.8161 29.3089 59.6911 27.1838 57.0697 27.1838C54.4484 27.1838 52.3234 29.3089 52.3234 31.9302C52.3234 34.5516 54.4484 36.6766 57.0697 36.6766Z" stroke="#1B85B9" stroke-linecap="round" stroke-linejoin="round"/>
<path d="M52.4727 30.6523H46.017" stroke="#1B85B9" stroke-linecap="round" stroke-linejoin="round"/>
<path d="M45.1043 8.2813L48.7056 7.88301C51.2253 7.45329 53.8032 7.4983 56.3064 8.01576C58.4282 8.65809 60.2899 9.96026 61.621 11.7331C62.9521 13.5058 63.6832 15.6569 63.7081 17.8736C60.1234 17.4421 56.7545 19.9813 53.1366 19.9149C51.7585 19.8179 50.401 19.5274 49.1039 19.0519C46.4319 18.2221 37.6694 17.0936 36.7068 14.0732C35.4456 10.1566 42.5485 8.2813 45.1043 8.2813Z" fill="white" stroke="#333333" stroke-width="1.5" stroke-linecap="round" stroke-linejoin="round"/>
<path d="M38.748 10.2893C40.0954 12.0807 42.0914 13.2723 44.3076 13.6085C46.5107 13.9005 48.7428 13.9005 50.9459 13.6085" stroke="#333333" stroke-width="1.5" stroke-linecap="round" stroke-linejoin="round"/>
<path d="M55.9579 12.7123C56.2987 12.8323 56.6642 12.8648 57.0209 12.8068C57.3775 12.7489 57.7139 12.6022 57.9992 12.3804" stroke="#333333" stroke-width="1.5" stroke-linecap="round" stroke-linejoin="round"/>
</g>
<defs>
<clipPath id="clip0_3_288">
<rect width="99.5745" height="78" fill="white" transform="translate(0.212769)"/>
</clipPath>
</defs>
</svg>
