<svg width="100" height="78" viewBox="0 0 100 78" fill="none" xmlns="http://www.w3.org/2000/svg">
<g clip-path="url(#clip0_3_322)">
<path d="M46.963 44.9412L36.3915 61.4374L34.6655 93.5834L76.0885 92.1561L72.6698 55.1476L62.5796 43.0659L46.963 44.9412Z" fill="#ADA0EA" stroke="#333333" stroke-width="1.5" stroke-linecap="round" stroke-linejoin="round"/>
<path d="M47.0792 44.875C47.0792 44.875 37.7358 45.1571 32.7571 47.8622C32.7571 47.8622 25.6209 50.3184 27.4133 65.6861L42.2167 64.6571L46.963 60.4916" fill="#ADA0EA"/>
<path d="M47.0792 44.875C47.0792 44.875 37.7358 45.1571 32.7571 47.8622C32.7571 47.8622 25.6209 50.3184 27.4133 65.6861L42.2167 64.6571L46.963 60.4916" stroke="#333333" stroke-width="1.5" stroke-linecap="round" stroke-linejoin="round"/>
<path d="M37.3374 56.6078C38.3498 53.2887 42.98 51.6291 46.4319 51.3967C48.5543 51.1875 50.6834 51.7213 52.4561 52.907C53.5972 53.7772 54.5523 54.8674 55.2649 56.113C55.9776 57.3587 56.4332 58.7345 56.605 60.1593C56.854 64.9223 54.1323 69.6355 50.9791 73.2202C49.9026 74.4011 48.7494 75.5099 47.5272 76.5393L37.5698 85.3516H36.8229L26.8655 76.5393C25.6433 75.5099 24.4901 74.4011 23.4136 73.2202C20.2604 69.6355 17.5387 64.9223 17.7876 60.1593C17.9594 58.7345 18.4151 57.3587 19.1277 56.113C19.8403 54.8674 20.7954 53.7772 21.9366 52.907C23.7093 51.7213 25.8385 51.1875 27.9608 51.3967C31.4127 51.5461 36.2587 53.3053 37.2047 56.6078H37.3374Z" fill="#FF8AA9" stroke="#333333" stroke-width="1.5" stroke-linecap="round" stroke-linejoin="round"/>
<path d="M22.6668 48.5261C23.3594 49.1132 23.9243 49.8362 24.3264 50.6503C24.5476 51.0197 24.6463 51.4495 24.6085 51.8784C24.5763 52.0975 24.4754 52.3008 24.3203 52.4589C24.1652 52.6169 23.964 52.7217 23.7455 52.758C23.3712 52.7558 23.0086 52.6272 22.7166 52.3929L20.9076 51.281C20.6149 51.1142 20.3468 50.9075 20.111 50.6669C19.9108 50.3805 19.7646 50.0599 19.6795 49.721C19.0821 47.4142 21.0404 47.1486 22.6668 48.5261Z" fill="#FDE8DE" stroke="#333333" stroke-width="1.5" stroke-linecap="round" stroke-linejoin="round"/>
<path d="M20.1608 51.0485C20.8485 51.6404 21.4125 52.3623 21.8204 53.1728C22.0416 53.5421 22.1404 53.972 22.1025 54.4009C22.0704 54.62 21.9695 54.8232 21.8144 54.9813C21.6593 55.1394 21.458 55.2441 21.2395 55.2804C20.8595 55.282 20.4905 55.1532 20.194 54.9153L18.4017 53.8034C18.109 53.6367 17.8409 53.43 17.6051 53.1894C17.4049 52.9029 17.2587 52.5824 17.1736 52.2434C16.4932 49.9366 18.5178 49.6711 20.1608 51.0485Z" fill="#FDE8DE" stroke="#333333" stroke-width="1.5" stroke-linecap="round" stroke-linejoin="round"/>
<path d="M17.6383 53.5711C18.337 54.1524 18.903 54.8768 19.2979 55.6954C19.5073 56.069 19.5998 56.4968 19.5634 56.9235C19.5393 57.1413 19.4427 57.3447 19.2893 57.5012C19.1359 57.6576 18.9344 57.7581 18.717 57.7864C18.339 57.7928 17.9701 57.6698 17.6715 57.438L15.8792 56.326C15.5794 56.1631 15.3099 55.9498 15.0826 55.6954C14.8682 55.4214 14.7154 55.1044 14.6345 54.766C13.9873 52.4426 16.012 52.1937 17.6383 53.5711Z" fill="#FDE8DE" stroke="#333333" stroke-width="1.5" stroke-linecap="round" stroke-linejoin="round"/>
<path d="M15.8957 56.1931C16.5956 56.7733 17.1617 57.498 17.5553 58.3174C17.7787 58.6859 17.8776 59.1164 17.8375 59.5455C17.8106 59.7622 17.7131 59.9641 17.5602 60.1201C17.4072 60.276 17.2073 60.3774 16.9911 60.4085C16.613 60.4148 16.2442 60.2918 15.9455 60.0599L14.1366 58.948C13.8418 58.7849 13.5778 58.5715 13.3566 58.3174C13.1422 58.0434 12.9894 57.7264 12.9085 57.388C12.2281 55.0646 14.2694 54.8323 15.8957 56.1931Z" fill="#FDE8DE" stroke="#333333" stroke-width="1.5" stroke-linecap="round" stroke-linejoin="round"/>
<path d="M46.7473 84.0572C44.54 85.3849 39.4949 87.1606 36.9557 86.7291C36.9237 86.2981 37.0516 85.8703 37.3148 85.5275C37.5781 85.1847 37.9583 84.9508 38.383 84.8704C37.769 85.1691 37.1217 84.273 37.3541 83.6257C37.6752 83.0156 38.2237 82.5565 38.8809 82.3478C38.0345 83.0781 36.5906 82.0823 36.5906 80.9538C36.6547 80.3934 36.8605 79.8586 37.1886 79.3998C37.5167 78.941 37.9563 78.5734 38.466 78.3317C39.4908 77.8571 40.4547 77.2609 41.337 76.5559C42.9966 74.8963 42.9136 72.158 43.7268 69.9176C45.3864 65.2044 48.3405 73.4525 48.5562 75.2615L62.4468 74.5312L68.0396 61.2546L79.9388 63.1963L75.0762 79.2278C74.274 81.6449 72.7062 83.7349 70.6101 85.1812C68.5139 86.6276 66.0036 87.3516 63.4592 87.2436L46.7473 84.0572Z" fill="#FDE8DE" stroke="#333333" stroke-width="1.5" stroke-linecap="round" stroke-linejoin="round"/>
<path d="M62.7787 43.7466C62.7787 43.7466 72.006 45.1904 76.6196 48.5925C76.6196 48.5925 83.4239 51.9117 79.7728 67.5449L65.2018 64.624L65.932 56.6083" fill="#ADA0EA"/>
<path d="M62.7787 43.7466C62.7787 43.7466 72.006 45.1904 76.6196 48.5925C76.6196 48.5925 83.4239 51.9117 79.7728 67.5449L65.2018 64.624L65.932 56.6083" stroke="#333333" stroke-width="1.5" stroke-linecap="round" stroke-linejoin="round"/>
<path d="M46.963 43.547V48.3265C46.963 48.3265 56.323 52.3095 62.8949 47.53V37.5725L46.963 43.547Z" fill="#FDE8DE" stroke="#333333" stroke-width="1.5" stroke-linecap="round" stroke-linejoin="round"/>
<path d="M67.2098 19.9813C66.6815 20.1474 66.2102 20.4577 65.849 20.8775C60.2728 8.77917 49.4524 12.1481 49.4524 12.1481L47.9256 12.6294L46.266 13.1605L44.7558 13.6417C44.7558 13.6417 34.0017 17.2098 36.4579 30.2375C35.9161 30.0789 35.3402 30.0789 34.7983 30.2375C34.3368 30.3798 33.9151 30.6284 33.5672 30.9634C33.2192 31.2984 32.9547 31.7103 32.7949 32.1661C32.6352 32.6219 32.5846 33.1088 32.6472 33.5877C32.7099 34.0666 32.8841 34.5241 33.1557 34.9234C33.4274 35.3228 33.789 35.6528 34.2114 35.887C34.6338 36.1211 35.1053 36.2529 35.5879 36.2717C36.0705 36.2905 36.5508 36.1958 36.9901 35.9952C37.4294 35.7945 37.8156 35.4936 38.1175 35.1166C39.7771 39.946 45.6685 46.6009 56.1073 44.3107H56.2068L57.8664 43.7796H57.9826C67.7907 39.5643 68.7201 30.503 67.2264 25.8396C67.8 26.0132 68.412 26.0132 68.9856 25.8396C69.6685 25.5311 70.2158 24.9847 70.5255 24.3023C70.8352 23.62 70.8862 22.8483 70.6688 22.1311C70.4514 21.414 69.9806 20.8004 69.3442 20.4048C68.7077 20.0093 67.9491 19.8587 67.2098 19.9813Z" fill="#FDE8DE" stroke="#333333" stroke-width="1.5" stroke-linecap="round" stroke-linejoin="round"/>
<path d="M52.9707 31.9967C53.6673 31.9967 54.232 31.432 54.232 30.7354C54.232 30.0388 53.6673 29.4741 52.9707 29.4741C52.2741 29.4741 51.7094 30.0388 51.7094 30.7354C51.7094 31.432 52.2741 31.9967 52.9707 31.9967Z" fill="#FF787F"/>
<path d="M47.4941 37.5396C48.8414 37.5396 49.9337 36.4473 49.9337 35.1C49.9337 33.7526 48.8414 32.6604 47.4941 32.6604C46.1467 32.6604 45.0545 33.7526 45.0545 35.1C45.0545 36.4473 46.1467 37.5396 47.4941 37.5396Z" fill="#FFA89C"/>
<path d="M59.9575 33.5234C61.3049 33.5234 62.3971 32.4312 62.3971 31.0839C62.3971 29.7365 61.3049 28.6443 59.9575 28.6443C58.6102 28.6443 57.5179 29.7365 57.5179 31.0839C57.5179 32.4312 58.6102 33.5234 59.9575 33.5234Z" fill="#FFA89C"/>
<path d="M47.5604 32.876C48.2845 32.876 48.8715 32.2891 48.8715 31.565C48.8715 30.8409 48.2845 30.2539 47.5604 30.2539C46.8363 30.2539 46.2493 30.8409 46.2493 31.565C46.2493 32.2891 46.8363 32.876 47.5604 32.876Z" fill="#333333"/>
<path d="M57.883 29.5569C58.6071 29.5569 59.1941 28.97 59.1941 28.2459C59.1941 27.5218 58.6071 26.9348 57.883 26.9348C57.1589 26.9348 56.572 27.5218 56.572 28.2459C56.572 28.97 57.1589 29.5569 57.883 29.5569Z" fill="#333333"/>
<path d="M50.2656 34.32C50.4172 34.4859 50.5902 34.631 50.78 34.7514C51.3371 34.9851 51.9351 35.1055 52.5392 35.1055C53.1433 35.1055 53.7413 34.9851 54.2983 34.7514C54.8821 34.6244 55.4422 34.406 55.9579 34.1042C56.2204 33.95 56.4447 33.7387 56.6143 33.4858C56.7838 33.233 56.8941 32.9452 56.937 32.6438" stroke="#333333" stroke-width="1.5" stroke-linecap="round" stroke-linejoin="round"/>
<path d="M32.9561 28.279C33.3581 28.4055 33.7812 28.4506 34.2008 28.4117C36.3272 28.296 38.3981 27.6906 40.252 26.6428C42.1059 25.5949 43.6926 24.1329 44.8885 22.3709C45.6089 22.6442 46.3769 22.7701 47.1469 22.7412C47.9169 22.7123 48.6733 22.5291 49.3712 22.2026C50.0692 21.876 50.6945 21.4128 51.2101 20.8402C51.7258 20.2676 52.1213 19.5974 52.3732 18.8692C53.4931 19.6389 54.8162 20.0592 56.1751 20.0769C57.5339 20.0946 58.8676 19.709 60.0072 18.9687C60.4037 18.6162 60.8835 18.3706 61.4013 18.2551C61.913 18.2784 62.4174 18.3849 62.8949 18.5704C63.6111 18.6844 64.345 18.5884 65.0077 18.2938C65.6705 17.9993 66.2336 17.5189 66.6289 16.9109C67.4013 15.6786 67.8363 14.265 67.8902 12.8117C67.8902 12.347 67.8072 12.6458 67.5749 12.2475C67.3425 11.8492 66.463 10.4385 65.9153 10.256C63.7023 9.49946 61.3203 9.38439 59.0446 9.92407C58.7468 8.98699 58.2007 8.14809 57.4644 7.49647C56.728 6.84485 55.8289 6.40486 54.8625 6.22323C52.9265 5.87434 50.9336 6.0228 49.0706 6.65471C46.5149 7.38492 43.8264 8.67939 42.7642 11.119C41.2168 10.5634 39.5353 10.5012 37.9511 10.9411C36.3669 11.381 34.9581 12.3013 33.9187 13.5751C31.8442 15.8653 32.7072 18.7032 31.5289 21.4083C30.2677 24.379 30.9646 27.4658 32.9561 28.279Z" fill="#9B6A50" stroke="#333333" stroke-width="1.5" stroke-linecap="round" stroke-linejoin="round"/>
<path d="M42.5153 10.804C42.9027 12.1394 42.8267 13.5666 42.2996 14.8533C42.0215 15.4876 41.552 16.0191 40.9568 16.3732C40.3616 16.7274 39.6705 16.8865 38.9804 16.8282" stroke="#333333" stroke-width="1.5" stroke-linecap="round" stroke-linejoin="round"/>
<path d="M51.9417 17.6078C51.6558 16.6703 51.7518 15.6578 52.2086 14.7907C52.6655 13.9235 53.4463 13.2719 54.3813 12.9776C55.3936 12.6457 56.7711 12.8946 57.0698 13.907" stroke="#333333" stroke-width="1.5" stroke-linecap="round" stroke-linejoin="round"/>
<path d="M34.234 25.1092C34.1801 24.6963 34.2414 24.2764 34.4113 23.8962C34.5812 23.516 34.8529 23.1901 35.1965 22.9548C35.5401 22.7194 35.9421 22.5837 36.3581 22.5627C36.774 22.5417 37.1876 22.6361 37.5532 22.8356" stroke="#333333" stroke-width="1.5" stroke-linecap="round" stroke-linejoin="round"/>
</g>
<defs>
<clipPath id="clip0_3_322">
<rect width="99.5745" height="78" fill="white" transform="translate(0.212769)"/>
</clipPath>
</defs>
</svg>
