<svg width="40" height="40" viewBox="0 0 40 40" fill="none" xmlns="http://www.w3.org/2000/svg">
<rect width="40" height="40" rx="20" fill="#DC0000"/>
<path d="M30.5418 14.705C30.4162 14.2389 30.1704 13.814 29.8291 13.4727C29.4878 13.1314 29.0629 12.8856 28.5968 12.76C26.88 12.2927 20 12.2927 20 12.2927C20 12.2927 13.1182 12.2927 11.405 12.7527C10.9379 12.8787 10.5122 13.1254 10.1708 13.4681C9.82937 13.8108 9.58421 14.2374 9.45999 14.705C9 16.42 9 20.0003 9 20.0003C9 20.0003 9 23.5807 9.45999 25.2957C9.58532 25.7619 9.83097 26.187 10.1723 26.5284C10.5137 26.8697 10.9388 27.1154 11.405 27.2407C13.12 27.7007 20 27.7007 20 27.7007C20 27.7007 26.8818 27.7007 28.5968 27.2407C29.0629 27.115 29.4878 26.8693 29.8291 26.528C30.1704 26.1866 30.4162 25.7617 30.5418 25.2957C31 23.5807 31 20.0003 31 20.0003C31 20.0003 30.9946 16.42 30.5418 14.705ZM17.7996 23.3V16.7007L23.5151 20.0003L17.7996 23.3Z" fill="white"/>
</svg>
