<svg width="40" height="40" viewBox="0 0 40 40" fill="none" xmlns="http://www.w3.org/2000/svg">
<rect width="40" height="40" rx="20" fill="#32B44A"/>
<path d="M21.6452 15.6601C20.1099 15.7439 18.6589 16.3747 17.5658 17.4336V10.1H12.85V29.4167H17.6148V27.8988C18.0456 28.5403 18.6388 29.0614 19.3366 29.4114C20.0344 29.7615 20.813 29.9284 21.5963 29.896C22.5181 29.8573 23.4229 29.6393 24.2578 29.2547C25.0927 28.8701 25.8411 28.3266 26.4593 27.6559C27.0774 26.9852 27.5531 26.2007 27.8584 25.3481C28.1637 24.4956 28.2926 23.5921 28.2376 22.6902C28.2376 22.6902 27.9929 15.6601 21.5963 15.6601M20.552 25.8218C19.9517 25.8218 19.3649 25.6475 18.8658 25.3209C18.3666 24.9944 17.9776 24.5302 17.7479 23.9872C17.5182 23.4442 17.4581 22.8467 17.5752 22.2702C17.6923 21.6937 17.9814 21.1642 18.4058 20.7486C18.8303 20.333 19.3711 20.0499 19.9598 19.9353C20.5486 19.8206 21.1589 19.8794 21.7134 20.1044C22.268 20.3293 22.742 20.7102 23.0755 21.1989C23.409 21.6876 23.5871 22.2622 23.5871 22.85C23.5871 23.6382 23.2673 24.3941 22.6981 24.9514C22.1289 25.5087 21.3569 25.8218 20.552 25.8218Z" fill="white"/>
</svg>
