<svg width="106" height="94" viewBox="0 0 106 94" fill="none" xmlns="http://www.w3.org/2000/svg">
<g clip-path="url(#clip0_81_955)">
<path d="M70.0097 61.7422H53.0709V78.6835H70.0097V61.7422Z" fill="white" stroke="#251060" stroke-width="2" stroke-linecap="round" stroke-linejoin="round"/>
<path d="M26.9733 19.0198C26.9733 19.0198 25.6208 27.9993 18.2076 29.6226C18.2076 29.6226 26.9733 32.1992 26.9733 42.7118C26.9733 32.167 35.7391 29.6226 35.7391 29.6226C28.6415 27.9993 26.9733 19.0198 26.9733 19.0198Z" fill="white" stroke="#251060" stroke-width="2" stroke-linecap="round" stroke-linejoin="round"/>
<path d="M47.8166 7C47.8166 7 47.0952 11.7539 43.1793 12.6106C43.1793 12.6106 47.8166 13.9569 47.8166 19.5288C47.8166 13.9569 52.4474 12.6106 52.4474 12.6106C48.6925 11.7345 47.8166 7 47.8166 7Z" fill="white" stroke="#251060" stroke-width="2" stroke-linecap="round" stroke-linejoin="round"/>
<path d="M74.8531 43.3709C74.8531 43.3709 83.7025 37.522 86.2788 45.0844C86.2788 45.0844 88.855 52.0348 80.1988 54.6437C80.1988 54.6437 74.8788 57.0657 71.3494 51.5388L74.8531 43.3709Z" fill="#251060" stroke="#251060" stroke-width="2" stroke-linecap="round" stroke-linejoin="round"/>
<path d="M45.6512 87.8886L51.7892 117.307C51.7892 117.307 60.3487 124.18 85.4157 117.951L96.3648 114.975L86.9228 94.2335L87.0452 76.5707C86.5859 72.797 84.9244 69.2713 82.3065 66.515C79.6886 63.7587 76.2533 61.9182 72.5087 61.2656L66.9568 60.6601L58.5067 74.4644L53.541 62.554C53.541 62.554 42.7851 55.713 35.211 65.1756L13.2291 91.9661C13.2291 91.9661 19.9273 106.092 30.4062 98.3754L45.677 87.8886L43.7706 80.4228" fill="#5AADA7"/>
<path d="M45.6512 87.8886L51.7892 117.307C51.7892 117.307 60.3487 124.18 85.4157 117.951L96.3648 114.975L86.9228 94.2335L87.0452 76.5707C86.5859 72.797 84.9244 69.2713 82.3065 66.515C79.6886 63.7587 76.2533 61.9182 72.5087 61.2656L66.9568 60.6601L58.5067 74.4644L53.541 62.554C53.541 62.554 42.7851 55.713 35.211 65.1756L13.2291 91.9661C13.2291 91.9661 19.9273 106.092 30.4062 98.3754L45.677 87.8886L43.7706 80.4228" stroke="#251060" stroke-width="2" stroke-linecap="round" stroke-linejoin="round"/>
<path d="M58.481 74.4644L53.5152 62.554L51.1837 76.8735L58.481 74.4644Z" fill="#5AADA7" stroke="#251060" stroke-width="2" stroke-linecap="round" stroke-linejoin="round"/>
<path d="M58.481 74.4642L65.0504 78.9346L65.8362 63.3525L58.481 74.4642Z" fill="#5AADA7" stroke="#251060" stroke-width="2" stroke-linecap="round" stroke-linejoin="round"/>
<path d="M73.7646 49.4518C73.7646 49.4518 79.9218 44.1891 83.374 50.1797C83.374 50.1797 88.6747 59.5135 70.0097 60.6601L73.7646 49.4518Z" fill="white" stroke="#251060" stroke-width="2" stroke-linecap="round" stroke-linejoin="round"/>
<path d="M73.2751 54.4374C73.2751 54.4374 76.6371 52.228 79.6642 52.5951L73.2751 54.4374Z" fill="white"/>
<path d="M73.2751 54.4374C73.2751 54.4374 76.6371 52.228 79.6642 52.5951" stroke="#251060" stroke-width="2" stroke-linecap="round" stroke-linejoin="round"/>
<path d="M74.37 52.2796C72.7728 61.0594 64.6253 66.9276 56.1752 65.3881C47.3322 63.7713 42.1733 55.481 43.7706 46.7076C45.3678 37.9342 53.5152 32.0595 61.9654 33.5991C70.4155 35.1386 75.9738 43.4933 74.37 52.2796Z" fill="white" stroke="#251060" stroke-width="2" stroke-linecap="round" stroke-linejoin="round"/>
<path d="M59.4406 42.7783C59.4603 43.1191 59.5806 43.4465 59.7864 43.719C59.9921 43.9915 60.274 44.1969 60.5965 44.3091C60.9189 44.4214 61.2674 44.4354 61.5979 44.3496C61.9283 44.2637 62.2259 44.0818 62.4529 43.8268C62.68 43.5718 62.8263 43.2551 62.8734 42.9169C62.9205 42.5787 62.8663 42.2342 62.7176 41.9268C62.5689 41.6194 62.3323 41.363 62.0379 41.1901C61.7435 41.0172 61.4045 40.9355 61.0636 40.9553C60.8371 40.9676 60.6153 41.0246 60.4109 41.1231C60.2065 41.2215 60.0236 41.3594 59.8727 41.5289C59.7219 41.6983 59.606 41.896 59.5319 42.1104C59.4577 42.3248 59.4267 42.5518 59.4406 42.7783Z" fill="#251060"/>
<path d="M49.6251 41.8378C49.6448 42.1787 49.7651 42.5061 49.9709 42.7786C50.1766 43.0511 50.4585 43.2565 50.781 43.3687C51.1034 43.4809 51.4519 43.495 51.7824 43.4092C52.1128 43.3233 52.4104 43.1414 52.6374 42.8863C52.8645 42.6313 53.0108 42.3147 53.0579 41.9765C53.105 41.6383 53.0508 41.2937 52.9021 40.9864C52.7534 40.679 52.5169 40.4226 52.2225 40.2497C51.9281 40.0768 51.589 39.9951 51.2481 40.0149C50.7912 40.0414 50.3636 40.2484 50.0592 40.5903C49.7549 40.9321 49.5987 41.3809 49.6251 41.8378Z" fill="#251060"/>
<path d="M54.8807 41.8635C54.8807 41.8635 52.7617 45.2904 54.5458 46.5787L54.8807 41.8635Z" fill="white"/>
<path d="M54.8807 41.8635C54.8807 41.8635 52.7617 45.2904 54.5458 46.5787" stroke="#251060" stroke-width="1.5" stroke-linecap="round" stroke-linejoin="round"/>
<path d="M48.4271 49.4453C48.4271 49.4453 52.9356 56.6663 61.5918 51.3778L48.4271 49.4453Z" fill="white"/>
<path d="M48.4271 49.4453C48.4271 49.4453 52.9356 56.6663 61.5918 51.3778" stroke="#251060" stroke-width="1.5" stroke-linecap="round" stroke-linejoin="round"/>
<path d="M57.1735 74.896L58.481 80.5324" stroke="#251060" stroke-width="2" stroke-linecap="round" stroke-linejoin="round"/>
<path d="M46.5916 40.0085C46.5916 40.0085 47.7702 39.7766 53.0708 36.5751L60.5356 33.3544C60.5356 33.3544 65.6881 35.0872 67.6203 42.6882C67.6203 42.6882 68.0904 49.6193 73.7517 49.4582C73.7517 49.4582 75.8449 47.6546 77.571 47.4936C77.571 47.4936 76.4697 37.9343 64.6897 33.3544C64.6897 33.3544 60.4261 28.5554 49.6187 34.997C49.6187 34.9905 44.4146 37.4963 46.5916 40.0085Z" fill="#251060" stroke="#251060" stroke-width="2" stroke-linecap="round" stroke-linejoin="round"/>
<path d="M31.5334 74.8123C31.5334 74.8123 38.6181 107.02 45.7028 113.41L31.5334 112.392V74.8123Z" fill="white" stroke="#251060" stroke-width="2" stroke-linecap="round" stroke-linejoin="round"/>
<path d="M2.33795 69.1113L11.6511 112.379L39.9191 116.759L30.9344 71.7137L2.33795 69.1113Z" fill="#B7B7B7" stroke="#251060" stroke-width="2" stroke-linecap="round" stroke-linejoin="round"/>
<path d="M14.5172 106.588C15.203 106.441 15.8751 106.236 16.5267 105.976C16.5267 105.976 18.3171 104.044 15.9921 102.814C15.9921 102.814 15.8697 102.762 15.6507 102.691C15.9728 102.285 17.0484 100.694 15.0067 99.6251C14.3834 99.3954 13.7346 99.2419 13.0745 99.1678C13.7052 99.0062 14.3248 98.8039 14.9294 98.5622C14.9294 98.5622 16.9453 96.385 14.3304 94.9936C13.6476 94.7364 12.9361 94.5633 12.2114 94.4783C12.6365 94.3495 13.0809 94.2013 13.5382 94.0209C13.5382 94.0209 15.5541 91.8373 12.9328 90.4523C10.7737 89.712 8.44919 89.5981 6.22809 90.1238C6.22809 90.1238 -0.212569 89.6149 1.13352 94.4719C1.13352 94.4719 0.0386045 97.7828 2.69215 99.6831C2.69215 99.6831 1.60371 100.881 3.81285 102.904C3.81285 102.904 2.763 105.107 5.84163 106.588C5.89959 106.576 9.23586 107.774 14.5172 106.588Z" fill="white" stroke="#251060" stroke-width="2" stroke-linecap="round" stroke-linejoin="round"/>
<path d="M12.263 94.4717L9.62231 94.8002" stroke="#251060" stroke-width="2" stroke-linecap="round" stroke-linejoin="round"/>
<path d="M73.668 63.0822C82.0408 59.6617 91.8821 74.619 91.8821 74.619C91.8821 74.619 101.897 88.5843 103.984 95.7537C103.984 95.7537 109.401 108.527 95.6113 116.515C95.6113 116.515 80.1537 124.489 65.2114 127.034L58.1139 99.1033L83.5802 94.6909" fill="#5AADA7"/>
<path d="M73.668 63.0822C82.0408 59.6617 91.8821 74.619 91.8821 74.619C91.8821 74.619 101.897 88.5843 103.984 95.7537C103.984 95.7537 109.401 108.527 95.6113 116.515C95.6113 116.515 80.1537 124.489 65.2114 127.034L58.1139 99.1033L83.5802 94.6909" stroke="#251060" stroke-width="2" stroke-linecap="round" stroke-linejoin="round"/>
<path d="M81.4934 95.0321L75.9738 82.4583L81.4934 95.0321Z" fill="#5AADA7"/>
<path d="M81.4934 95.0321L75.9738 82.4583" stroke="#251060" stroke-width="2" stroke-linecap="round" stroke-linejoin="round"/>
</g>
<defs>
<clipPath id="clip0_81_955">
<rect width="106" height="94" fill="white"/>
</clipPath>
</defs>
</svg>
