<svg width="15" height="14" viewBox="0 0 15 14" fill="none" xmlns="http://www.w3.org/2000/svg">
<path d="M8.92523 0.919214L9.83481 3.10101C9.94337 3.36029 10.1246 3.58485 10.3579 3.7492C10.5912 3.91356 10.8672 4.01114 11.1547 4.03086L13.5688 4.20021C13.8744 4.22162 14.1666 4.33098 14.4079 4.51431C14.6493 4.69765 14.8289 4.94667 14.924 5.22958C15.019 5.51249 15.0251 5.81648 14.9415 6.10276C14.8578 6.38905 14.6883 6.64465 14.4544 6.83696L12.6045 8.3546C12.3836 8.53419 12.2191 8.77043 12.1296 9.03638C12.0401 9.30233 12.0294 9.58733 12.0985 9.85895L12.6832 12.1437C12.7566 12.4329 12.7396 12.7367 12.6343 13.0164C12.529 13.2962 12.3403 13.5391 12.0922 13.7141C11.844 13.8891 11.5478 13.9883 11.2414 13.999C10.9349 14.0097 10.6321 13.9315 10.3716 13.7742L8.31998 12.5322C8.07529 12.3842 7.79277 12.3057 7.50447 12.3057C7.21616 12.3057 6.93362 12.3842 6.68893 12.5322L4.63727 13.7742C4.37683 13.9315 4.07402 14.0097 3.76755 13.999C3.46108 13.9883 3.16487 13.8891 2.91674 13.7141C2.66862 13.5391 2.47986 13.2962 2.37459 13.0164C2.26931 12.7367 2.2523 12.4329 2.32573 12.1437L2.90704 9.85895C2.97613 9.58763 2.96567 9.30294 2.87684 9.03709C2.78801 8.77124 2.62434 8.53482 2.40437 8.3546L0.551042 6.83696C0.315686 6.64563 0.144627 6.39031 0.0598539 6.10382C-0.0249191 5.81733 -0.0195334 5.51277 0.075319 5.22928C0.170171 4.94578 0.350154 4.69631 0.592137 4.51294C0.834119 4.32956 1.12705 4.22064 1.43326 4.20021L3.8508 4.03086C4.13781 4.01091 4.41331 3.9132 4.64601 3.74884C4.87872 3.58448 5.05931 3.36003 5.16728 3.10101L6.08026 0.919214C6.19768 0.646892 6.39535 0.414345 6.64844 0.250797C6.90153 0.0872487 7.19876 0 7.50276 0C7.80675 0 8.10396 0.0872487 8.35705 0.250797C8.61014 0.414345 8.80781 0.646892 8.92523 0.919214Z" fill="#FDDF7B"/>
</svg>
